<svg width="32" height="32" viewBox="0 0 32 32" fill="none" xmlns="http://www.w3.org/2000/svg">
<rect width="32" height="32" rx="4" fill="white"/>
<path d="M8 24V10.6667C8 10.1778 8.11852 9.73333 8.35556 9.33333C8.59259 8.91852 8.91111 8.59259 9.31111 8.35555C9.72593 8.11852 10.1778 8 10.6667 8H21.3333C21.8222 8 22.2667 8.11852 22.6667 8.35555C23.0815 8.59259 23.4074 8.91852 23.6444 9.33333C23.8815 9.73333 24 10.1778 24 10.6667V24H22.2V18.1556H9.8V24H8ZM9.8 16.3556H22.2V10.6667C22.2 10.4296 22.1111 10.2296 21.9333 10.0667C21.7704 9.88889 21.5704 9.8 21.3333 9.8H10.6667C10.4296 9.8 10.2222 9.88889 10.0444 10.0667C9.88148 10.2296 9.8 10.4296 9.8 10.6667V16.3556Z" fill="black" stroke="black"/>
</svg>
