<svg width="384" height="512" viewBox="0 0 384 512" fill="none" xmlns="http://www.w3.org/2000/svg">
<path d="M256 0V128H384L256 0ZM224 128V0H48C21.49 0 0 21.49 0 48V464C0 490.5 21.49 512 48 512H336C362.51 512 384 490.51 384 464V160H256.9C238.3 160 224 145.7 224 128ZM272 416H112C103.2 416 96 408.8 96 400C96 391.2 103.2 384 112 384H272C280.836 384 288 391.162 288 400C288 408.8 280.8 416 272 416ZM272 352H112C103.2 352 96 344.8 96 336C96 327.2 103.2 320 112 320H272C280.836 320 288 327.162 288 336C288 344.8 280.8 352 272 352ZM288 272C288 280.8 280.8 288 272 288H112C103.2 288 96 280.8 96 272C96 263.2 103.2 256 112 256H272C280.8 256 288 263.2 288 272Z" fill="#1192E8"/>
</svg>
