<svg width="512" height="512" viewBox="0 0 512 512" fill="none" xmlns="http://www.w3.org/2000/svg">
<g clip-path="url(#clip0_140_318)">
<path d="M268.847 102.568L271.443 105H275H447.1C478.247 105 502.1 129.588 502.1 160V416C502.1 446.37 477.478 471 447.1 471H63.1C32.7215 471 8.09998 446.37 8.09998 416V96C8.09998 65.6296 32.7215 41 63.1 41H181.5C196.104 41 210.016 46.7854 220.333 57.1113L220.438 57.2164L220.547 57.318L268.847 102.568ZM447.1 441C460.892 441 472.1 429.795 472.1 416V160C472.1 146.205 460.892 135 447.1 135H258.662L198.166 78.2161C193.468 73.5684 187.203 71 180.6 71H63.1C49.3081 71 38.1 82.2047 38.1 96V416C38.1 429.795 49.3081 441 63.1 441H447.1Z" fill="#1192E8" stroke="#161616" stroke-width="18"/>
<path d="M272.857 303.38H267.357V308.88V384.818C267.357 391.11 262.27 396.188 256 396.188C249.73 396.188 244.643 391.11 244.643 384.818V308.88V303.38H239.143H163.286C157.02 303.38 151.929 298.297 151.929 292C151.929 285.708 157.016 280.63 163.286 280.63H239.143H244.643V275.13V199.193C244.643 192.896 249.735 187.812 256 187.812C262.265 187.812 267.357 192.896 267.357 199.193V275.13V280.63H272.857H348.714H348.717C354.995 280.627 360.071 285.697 360.071 292C360.071 298.297 354.98 303.38 348.714 303.38H272.857Z" fill="#1192E8" stroke="#161616" stroke-width="11"/>
</g>
<defs>
<clipPath id="clip0_140_318">
<rect width="512" height="512" fill="white"/>
</clipPath>
</defs>
</svg>
