<svg width="18" height="18" viewBox="0 0 18 18" fill="none" xmlns="http://www.w3.org/2000/svg">
<path d="M1 17V3.66667C1 3.17778 1.11852 2.73333 1.35556 2.33333C1.59259 1.91852 1.91111 1.59259 2.31111 1.35555C2.72593 1.11852 3.17778 1 3.66667 1H14.3333C14.8222 1 15.2667 1.11852 15.6667 1.35555C16.0815 1.59259 16.4074 1.91852 16.6444 2.33333C16.8815 2.73333 17 3.17778 17 3.66667V17H15.2V11.1556H2.8V17H1ZM2.8 9.35556H15.2V3.66667C15.2 3.42963 15.1111 3.22963 14.9333 3.06667C14.7704 2.88889 14.5704 2.8 14.3333 2.8H3.66667C3.42963 2.8 3.22222 2.88889 3.04444 3.06667C2.88148 3.22963 2.8 3.42963 2.8 3.66667V9.35556Z" fill="black" stroke="black"/>
</svg>
