<svg width="64" height="13" viewBox="0 0 64 13" fill="none" xmlns="http://www.w3.org/2000/svg">
<path d="M0 12.421V2.07017C0 1.69064 0.0920074 1.34561 0.276022 1.03508C0.460037 0.713057 0.707307 0.460037 1.01783 0.276022C1.33986 0.0920072 1.69064 0 2.07017 0H10.3508C10.7304 0 11.0754 0.0920072 11.3859 0.276022C11.7079 0.460037 11.961 0.713057 12.145 1.03508C12.329 1.34561 12.421 1.69064 12.421 2.07017V12.421H11.0236V7.88388H1.39736V12.421H0ZM1.39736 6.48652H11.0236V2.07017C11.0236 1.88615 10.9546 1.73089 10.8166 1.60438C10.6901 1.46637 10.5348 1.39736 10.3508 1.39736H2.07017C1.88615 1.39736 1.72514 1.46637 1.58713 1.60438C1.46062 1.73089 1.39736 1.88615 1.39736 2.07017V6.48652Z" fill="#393939"/>
<path d="M51.579 12.421V2.07017C51.579 1.69064 51.671 1.34561 51.855 1.03508C52.039 0.713057 52.2863 0.460037 52.5968 0.276022C52.9189 0.0920072 53.2696 0 53.6492 0H61.9298C62.3094 0 62.6544 0.0920072 62.9649 0.276022C63.2869 0.460037 63.54 0.713057 63.724 1.03508C63.908 1.34561 64 1.69064 64 2.07017V12.421H62.6026V7.88388H52.9764V12.421H51.579ZM52.9764 7.88388H62.6026V2.07017C62.6026 1.88615 62.5336 1.73089 62.3956 1.60438C62.2691 1.46637 62.1138 1.39736 61.9298 1.39736H53.6492C53.4652 1.39736 53.3041 1.46637 53.1661 1.60438C53.0396 1.73089 52.9764 1.88615 52.9764 2.07017V7.88388Z" fill="#393939"/>
<path d="M36.4562 12.421C36.0766 12.421 35.7259 12.329 35.4038 12.145C35.0933 11.961 34.846 11.7137 34.662 11.4032C34.478 11.0811 34.386 10.7304 34.386 10.3508V2.07017C34.386 1.69064 34.478 1.34561 34.662 1.03508C34.846 0.713057 35.0933 0.460037 35.4038 0.276022C35.7259 0.0920072 36.0766 0 36.4562 0H44.7368C45.1164 0 45.4614 0.0920072 45.7719 0.276022C46.0939 0.460037 46.347 0.713057 46.531 1.03508C46.715 1.34561 46.807 1.69064 46.807 2.07017V10.3508C46.807 10.7304 46.715 11.0811 46.531 11.4032C46.347 11.7137 46.0939 11.961 45.7719 12.145C45.4614 12.329 45.1164 12.421 44.7368 12.421H36.4562ZM36.4562 11.0236H44.7368C44.9208 11.0236 45.0761 10.9604 45.2026 10.8339C45.3406 10.6959 45.4096 10.5348 45.4096 10.3508V2.07017C45.4096 1.88615 45.3406 1.73089 45.2026 1.60438C45.0761 1.46637 44.9208 1.39736 44.7368 1.39736H36.4562C36.2722 1.39736 36.1111 1.46637 35.9731 1.60438C35.8466 1.73089 35.7834 1.88615 35.7834 2.07017V10.3508C35.7834 10.5348 35.8466 10.6959 35.9731 10.8339C36.1111 10.9604 36.2722 11.0236 36.4562 11.0236Z" fill="#393939"/>
<path d="M17.193 -5.42939e-07L17.2103 -5.42185e-07L23.4035 5.20992L29.5968 -7.54072e-10L29.614 0L29.614 1.79414L24.4903 6.12424L29.614 10.4371L29.614 12.2312L29.5968 12.2312L23.4035 7.02131L17.2103 12.2485L17.193 12.2485L17.193 10.4371L22.3167 6.12424L17.193 1.79414L17.193 -5.42939e-07Z" fill="#393939"/>
</svg>
