<svg width="198" height="39" viewBox="0 0 198 39" fill="none" xmlns="http://www.w3.org/2000/svg">
<path d="M0 38.2896V6.3816C0 5.21164 0.283627 4.14804 0.850879 3.1908C1.41813 2.19811 2.18038 1.41813 3.13762 0.85088C4.13031 0.283628 5.21164 1.90735e-06 6.3816 1.90735e-06H31.908C33.0779 1.90735e-06 34.1415 0.283628 35.0988 0.85088C36.0915 1.41813 36.8714 2.19811 37.4387 3.1908C38.006 4.14804 38.2896 5.21164 38.2896 6.3816V38.2896H33.982V24.3033H4.30758V38.2896H0ZM4.30758 19.9957H33.982V6.3816C33.982 5.81434 33.7693 5.33572 33.3438 4.94574C32.9539 4.5203 32.4752 4.30758 31.908 4.30758H6.3816C5.81434 4.30758 5.318 4.5203 4.89256 4.94574C4.50257 5.33572 4.30758 5.81434 4.30758 6.3816V19.9957Z" fill="white"/>
<path d="M159 38.2896V6.3816C159 5.21164 159.284 4.14804 159.851 3.1908C160.418 2.19811 161.18 1.41813 162.138 0.85088C163.13 0.283628 164.212 1.90735e-06 165.382 1.90735e-06H190.908C192.078 1.90735e-06 193.142 0.283628 194.099 0.85088C195.091 1.41813 195.871 2.19811 196.439 3.1908C197.006 4.14804 197.29 5.21164 197.29 6.3816V38.2896H192.982V24.3033H163.308V38.2896H159ZM163.308 24.3033H192.982V6.3816C192.982 5.81434 192.769 5.33572 192.344 4.94574C191.954 4.5203 191.475 4.30758 190.908 4.30758H165.382C164.814 4.30758 164.318 4.5203 163.893 4.94574C163.503 5.33572 163.308 5.81434 163.308 6.3816V24.3033Z" fill="white"/>
<path d="M112.382 38.2896C111.212 38.2896 110.13 38.006 109.138 37.4387C108.18 36.8715 107.418 36.1092 106.851 35.152C106.284 34.1593 106 33.0779 106 31.908V6.3816C106 5.21164 106.284 4.14804 106.851 3.1908C107.418 2.19811 108.18 1.41813 109.138 0.85088C110.13 0.283628 111.212 1.90735e-06 112.382 1.90735e-06H137.908C139.078 1.90735e-06 140.142 0.283628 141.099 0.85088C142.091 1.41813 142.871 2.19811 143.439 3.1908C144.006 4.14804 144.29 5.21164 144.29 6.3816V31.908C144.29 33.0779 144.006 34.1593 143.439 35.152C142.871 36.1092 142.091 36.8715 141.099 37.4387C140.142 38.006 139.078 38.2896 137.908 38.2896H112.382ZM112.382 33.982H137.908C138.475 33.982 138.954 33.787 139.344 33.397C139.769 32.9716 139.982 32.4752 139.982 31.908V6.3816C139.982 5.81434 139.769 5.33572 139.344 4.94574C138.954 4.5203 138.475 4.30758 137.908 4.30758H112.382C111.814 4.30758 111.318 4.5203 110.893 4.94574C110.503 5.33572 110.308 5.81434 110.308 6.3816V31.908C110.308 32.4752 110.503 32.9716 110.893 33.397C111.318 33.787 111.814 33.982 112.382 33.982Z" fill="white"/>
<path d="M53 2.33658e-07L53.0532 2.35982e-07L72.1448 16.0604L91.2364 1.90502e-06L91.2896 1.90735e-06L91.2896 5.53072L75.4952 18.8789L91.2896 32.1739L91.2896 37.7046L91.2364 37.7046L72.1448 21.6443L53.0532 37.7578L53 37.7578L53 32.1739L68.7945 18.8789L53 5.53072L53 2.33658e-07Z" fill="white"/>
</svg>
