<svg width="384" height="512" viewBox="0 0 384 512" fill="none" xmlns="http://www.w3.org/2000/svg">
<path d="M0 64C0 28.65 28.65 0 64 0H224V128C224 145.7 238.3 160 256 160H384V448C384 483.3 355.3 512 320 512H64C28.65 512 0 483.3 0 448V64ZM256 128V0L384 128H256Z" fill="#1192E8"/>
<path d="M286.119 256H97.8812C89.1156 256 82 263.149 82 271.921V376.045C82 384.851 89.1156 392 97.8812 392H286.153C294.919 392 302.034 384.851 302 376.079V271.921C302 263.149 294.884 256 286.119 256V256ZM198.359 360.124H177.219V318.682L156.078 345.239L134.937 318.682V360.124H113.728V287.876H134.869L156.009 314.434L177.15 287.876H198.291V360.124H198.359ZM244.869 361.195L213.141 324H234.281V287.876H255.422V324H276.562L244.869 361.195Z" fill="white"/>
</svg>
