<svg width="384" height="512" viewBox="0 0 384 512" fill="none" xmlns="http://www.w3.org/2000/svg">
<path d="M0 64C0 28.65 28.65 0 64 0H224V128C224 145.7 238.3 160 256 160H384V448C384 483.3 355.3 512 320 512H64C28.65 512 0 483.3 0 448V64ZM256 128V0L384 128H256Z" fill="#1192E8"/>
<path d="M281.833 236.188H242.75L231.583 225H203.667C197.518 225 192.5 230.027 192.5 236.188V292.125C192.5 298.285 197.518 303.312 203.667 303.312H281.833C287.982 303.312 293 298.285 293 292.125V247.375C293 241.215 287.975 236.188 281.833 236.188ZM281.833 336.875H242.75L231.583 325.688H203.667C197.518 325.688 192.5 330.715 192.5 336.875V392.812C192.5 398.973 197.518 404 203.667 404H281.833C287.982 404 293 398.973 293 392.812V348.062C293 341.909 287.975 336.875 281.833 336.875ZM114.333 230.594C114.333 227.491 111.849 225 108.75 225H97.5833C94.4863 225 92 227.491 92 230.594V370.438C92 376.598 97.018 381.625 103.167 381.625H181.333V359.25H114.333V280.938H181.333V258.562H114.333V230.594Z" fill="#161616"/>
</svg>
